<svg width="266" height="40" viewBox="0 0 266 40" fill="none" xmlns="http://www.w3.org/2000/svg">
<path d="M34.3792 15.1225L32.6926 22.9931H39.1834V29.3817H31.3127L29.4728 38.0701H22.6754L24.5153 29.3817H15.2136L13.3737 38.0701H6.62744L8.46734 29.3817H0.75V22.9931H9.84726L11.5338 15.1225H3.8676V8.73396H12.9138L14.7025 0.25H21.4488L19.66 8.73396H28.9617L30.7505 0.25H37.5479L35.7591 8.73396H42.301V15.1225H34.3792ZM27.5818 15.1225H18.2801L16.5935 22.9931H25.8952L27.5818 15.1225Z" fill="white"/>
<path d="M69.7972 32.0393H85.8452V38.0701H61.5177V32.5504L77.4634 8.42731H61.5177V2.39654H85.8452V7.91623L69.7972 32.0393Z" fill="white"/>
<path d="M109.517 38.4278C106.178 38.4278 103.111 37.6442 100.318 36.0768C97.5237 34.5095 95.309 32.346 93.6735 29.5861C92.038 26.7922 91.2203 23.6405 91.2203 20.1311C91.2203 16.6557 92.038 13.5381 93.6735 10.7783C95.309 7.98437 97.5237 5.80376 100.318 4.23644C103.111 2.66912 106.178 1.88546 109.517 1.88546C112.89 1.88546 115.957 2.66912 118.717 4.23644C121.51 5.80376 123.708 7.98437 125.309 10.7783C126.945 13.5381 127.763 16.6557 127.763 20.1311C127.763 23.6405 126.945 26.7922 125.309 29.5861C123.708 32.346 121.51 34.5095 118.717 36.0768C115.923 37.6442 112.856 38.4278 109.517 38.4278ZM109.517 32.0393C111.664 32.0393 113.555 31.5623 115.19 30.6083C116.826 29.6202 118.103 28.2232 119.023 26.4174C119.943 24.6116 120.403 22.5161 120.403 20.1311C120.403 17.746 119.943 15.6676 119.023 13.8959C118.103 12.0901 116.826 10.7101 115.19 9.75612C113.555 8.8021 111.664 8.3251 109.517 8.3251C107.371 8.3251 105.462 8.8021 103.793 9.75612C102.157 10.7101 100.88 12.0901 99.9598 13.8959C99.0399 15.6676 98.5799 17.746 98.5799 20.1311C98.5799 22.5161 99.0399 24.6116 99.9598 26.4174C100.88 28.2232 102.157 29.6202 103.793 30.6083C105.462 31.5623 107.371 32.0393 109.517 32.0393Z" fill="white"/>
<path d="M154.347 19.7733C156.357 20.1481 158.01 21.1533 159.304 22.7887C160.599 24.4242 161.247 26.2981 161.247 28.4106C161.247 30.3187 160.77 32.0052 159.816 33.4703C158.896 34.9014 157.55 36.0257 155.778 36.8435C154.006 37.6612 151.911 38.0701 149.492 38.0701H134.108V2.39654H148.827C151.246 2.39654 153.325 2.78837 155.062 3.57203C156.834 4.35569 158.163 5.446 159.049 6.84296C159.969 8.23991 160.429 9.82427 160.429 11.596C160.429 13.6744 159.867 15.4121 158.742 16.8091C157.652 18.206 156.187 19.1941 154.347 19.7733ZM141.263 17.1157H147.805C149.509 17.1157 150.82 16.7409 151.74 15.9913C152.66 15.2077 153.12 14.1003 153.12 12.6693C153.12 11.2383 152.66 10.1309 151.74 9.34726C150.82 8.5636 149.509 8.17177 147.805 8.17177H141.263V17.1157ZM148.469 32.2437C150.207 32.2437 151.553 31.8349 152.507 31.0171C153.495 30.1994 153.989 29.041 153.989 27.5418C153.989 26.0085 153.478 24.816 152.456 23.9642C151.434 23.0783 150.054 22.6354 148.316 22.6354H141.263V32.2437H148.469Z" fill="white"/>
<path d="M189.846 31.2727H175.637L173.287 38.0701H165.774L178.602 2.34543H186.932L199.761 38.0701H192.197L189.846 31.2727ZM187.903 25.5486L182.742 10.625L177.58 25.5486H187.903Z" fill="white"/>
<path d="M227.452 31.2727H213.244L210.893 38.0701H203.38L216.208 2.34543H224.539L237.367 38.0701H229.803L227.452 31.2727ZM225.51 25.5486L220.348 10.625L215.186 25.5486H225.51Z" fill="white"/>
<path d="M264.998 3.66596L257.819 27.2984L251.994 25.7376L257.543 1.66857L264.998 3.66596ZM251.959 38.1095C250.708 37.7744 249.773 37.1181 249.153 36.1407C248.575 35.1392 248.44 34.0625 248.749 32.9106C249.057 31.7587 249.708 30.9101 250.701 30.3648C251.735 29.7954 252.878 29.6783 254.128 30.0134C255.346 30.3397 256.244 31.0035 256.822 32.0051C257.409 32.9737 257.549 34.0339 257.24 35.1858C256.931 36.3377 256.276 37.2027 255.275 37.781C254.282 38.3263 253.177 38.4358 251.959 38.1095Z" fill="white"/>
</svg>
